<?xml version="1.0" standalone="no"?>
<!DOCTYPE svg PUBLIC "-//W3C//DTD SVG 20010904//EN"
 "http://www.w3.org/TR/2001/REC-SVG-20010904/DTD/svg10.dtd">
<svg version="1.0" xmlns="http://www.w3.org/2000/svg"
 width="46.000000pt" height="22.000000pt" viewBox="0 0 46.000000 22.000000"
 preserveAspectRatio="xMidYMid meet">

<g transform="translate(0.000000,22.000000) scale(0.100000,-0.100000)"
fill="#000000" stroke="none">
<path d="M40 184 c-18 -21 -3 -63 25 -74 15 -6 25 -17 25 -30 0 -28 20 -25 21
3 3 101 4 102 24 102 26 0 32 -37 10 -59 -9 -9 -12 -16 -5 -16 18 0 35 49 23
68 -13 22 -106 27 -123 6z m54 -12 c-1 -6 -2 -23 -2 -37 -2 -17 -6 -23 -16
-19 -19 7 -28 32 -20 56 6 21 40 21 38 0z"/>
<path d="M206 138 c-9 -45 0 -47 34 -7 29 33 40 27 20 -12 -8 -14 -7 -19 3
-19 7 0 20 16 29 35 l15 35 -26 -2 c-14 -1 -32 -9 -39 -18 -12 -13 -13 -13 -8
3 3 10 0 17 -8 17 -7 0 -16 -14 -20 -32z"/>
<path d="M308 135 c-13 -29 -13 -35 -2 -35 8 0 21 15 29 33 l14 32 -6 -30 c-6
-27 -5 -29 10 -16 21 17 22 37 1 45 -26 10 -29 8 -46 -29z"/>
<path d="M404 158 c-12 -19 -11 -58 2 -58 13 0 24 22 24 51 0 21 -15 25 -26 7z"/>
<path d="M370 115 c-7 -9 -8 -15 -2 -15 5 0 12 7 16 15 3 8 4 15 2 15 -2 0 -9
-7 -16 -15z"/>
</g>
</svg>
